.
..............................Site Info...........................

 -   http://www.scenetime.com  *_*    

Scenetime .Always on time . friendly online private torrent community ..

     We care to share . Join us on  http://www.scenetime.com 

    Be the first to get new release at  http://www.scenetime.com

        Seed back for speed


...................................NFO:.................................................                                                                                                     
       
     
     
       
       
     
     
                                         
                                         
                EXVID                    
                                         
         
                                         
         Filled the Archives             
                                         
         
                                         
                With:                    
                                         
         
                                         
                                    
     E240                           
                                    
     SP               (C) 2009      
                                         
     
     
     
                                                                                  
                                                                                   
                 The.Flock.2007.US.Cut.DVDRip.XviD-EXViD                            
                                                                                   
                                                                                  
     
                                                                                               
EXViD aims to iNTERNAL those releases which have been lost in the archives.
EXViD aims to PRE non-internal releases which have poor sources and are likely skipped by others. 
http://www.imdb.com/title/tt0473356/
Subtitles: EN, ES
Date: 2012.10

Director: Wai-keung Lau

Genre: Crime | Drama | Mystery | Thriller

Plot:
This film is about a hyper-vigilant employee of the department of public safety who, while
training his young female replacement, has to track down a missing girl who he is convinced
is connected to a paroled sex offender he is investigating.

Cast:
Richard Gere	 ...	Errol Babbage
Claire Danes	 ...	Allison Lowry
KaDee Strickland	 ...	Viola Frye
Ray Wise	 ...	Bobby Stiles
Russell Sams	 ...	Edmund Grooms
Avril Lavigne	 ...	Beatrice Bell
Kristina Sisco	 ...	Harriet Wells
Dwayne L. Barnes	 ...	Vincent Dennison (as Dwayne Barnes)
Matt Schulze	 ...	Glenn Custis
Debrianna Mansini	 ...	Harriet's Mother
Ed Ackerman	 ...	Louis Kessler
French Stewart	 ...	Haynes Ownby
Paul Scallan	 ...	Missing Girl's Father
Susan Conklin	 ...	Missing Girl's Mother
Carmen Serano	 ...	Woman in Gorilla Suit

Stats:
Format                           : AVI
Format/Info                      : Audio Video Interleave
File size                        : 700 MiB
Duration                         : 1h 36mn
Overall bit rate                 : 1 015 Kbps
Writing application              : Nandub v1.0rc2
Writing library                  : Nandub build 1852/release

Video
ID                               : 0
Format                           : MPEG-4 Visual
Format profile                   : Advanced Simple@L5
Format settings, BVOP            : 1
Format settings, QPel            : No
Format settings, GMC             : No warppoints
Format settings, Matrix          : Default (H.263)
Codec ID                         : XVID
Codec ID/Hint                    : XviD
Duration                         : 1h 36mn
Bit rate                         : 881 Kbps
Width                            : 640 pixels
Height                           : 272 pixels
Display aspect ratio             : 2.35:1
Frame rate                       : 23.976 fps
Color space                      : YUV
Chroma subsampling               : 4:2:0
Bit depth                        : 8 bits
Scan type                        : Progressive
Compression mode                 : Lossy
Bits/(Pixel*Frame)               : 0.211
Stream size                      : 608 MiB (87%)
Writing library                  : XviD 64

Audio
ID                               : 1
Format                           : MPEG Audio
Format version                   : Version 1
Format profile                   : Layer 3
Mode                             : Joint stereo
Mode extension                   : MS Stereo
Codec ID                         : 55
Codec ID/Hint                    : MP3
Duration                         : 1h 36mn
Bit rate mode                    : Variable
Bit rate                         : 121 Kbps
Nominal bit rate                 : 128 Kbps
Channel(s)                       : 2 channels
Sampling rate                    : 48.0 KHz
Compression mode                 : Lossy
Stream size                      : 83.6 MiB (12%)
Alignment                        : Aligned on interleaves
Interleave, duration             : 24 ms (0.58 video frame)
Interleave, preload duration     : 145 ms
Writing library                  : LAME3.98r
Encoding settings                : -m j -V 4 -q 3 -lowpass 17 --abr 128




Release notes:
The HLS rip and our WS rip were of the 105 min original cut. This is the shorter 96 min cut
(with different scenes shot by Niels Mueller) which was released straight to DVD in the US.

enjoy!

Looking for:
75TB+ Archives
DUTCH/FLEMiSH Archives
                                                                                                    
Greets: CRBS EPiSODE FiCO FLS iLS KLASSiGER LiPSYNC MADE NODLABS RUNNER SPRiNTER      
   

                                                                    ASCII DONE BY XX^NFO 2oo9